# created using a simple obj writer by Geert van Ieperen
# calling method: nl.NG.Jetfightergame.Assets.Shapes.GeneralShapes.rebuildAll(GeneralShapes.java:69)                   
mtllib arrow.mtl
v -0.525731087 0.850650787 0.000000000
v 0.000000000 0.525731087 0.850650787
v 0.525731087 0.850650787 0.000000000
v -0.850650787 0.000000000 0.525731087
v 0.000000000 -0.525731087 0.850650787
v 0.850650787 0.000000000 0.525731087
v 0.850650787 0.000000000 -0.525731087
v 0.525731087 -0.850650787 0.000000000
v -0.525731087 -0.850650787 0.000000000
v 0.000000000 -0.525731087 -0.850650787
v 0.000000000 0.525731087 -0.850650787
v -0.850650787 0.000000000 -0.525731087
vn 0.000000000 0.934172273 0.356822073
vn -0.577350259 0.577350259 0.577350259
vn -0.356822073 0.000000000 0.934172273
vn 0.356822073 -0.000000000 0.934172273
vn 0.577350259 0.577350259 0.577350259
vn 0.934172273 0.356822073 -0.000000000
vn 0.934172273 -0.356822073 0.000000000
vn 0.577350259 -0.577350259 0.577350259
vn 0.000000000 -0.934172273 0.356822073
vn 0.000000000 -0.934172273 -0.356822073
vn 0.577350259 -0.577350259 -0.577350259
vn 0.356822073 0.000000000 -0.934172273
vn -0.356822073 0.000000000 -0.934172273
vn -0.577350259 0.577350259 -0.577350259
vn 0.000000000 0.934172273 -0.356822073
vn 0.577350259 0.577350259 -0.577350259
vn -0.934172273 0.356822073 0.000000000
vn -0.934172273 -0.356822073 0.000000000
vn -0.577350259 -0.577350259 0.577350259
vn -0.577350259 -0.577350259 -0.577350259
usemtl None
s off

f  1//1 2//1 3//1
f  1//2 4//2 2//2
f  4//3 5//3 2//3
f  2//4 5//4 6//4
f  2//5 6//5 3//5
f  6//6 7//6 3//6
f  6//7 8//7 7//7
f  5//8 8//8 6//8
f  5//9 9//9 8//9
f  9//10 10//10 8//10
f  10//11 7//11 8//11
f  10//12 11//12 7//12
f  10//13 12//13 11//13
f  12//14 1//14 11//14
f  1//15 3//15 11//15
f  11//16 3//16 7//16
f  4//17 1//17 12//17
f  4//18 12//18 9//18
f  4//19 9//19 5//19
f  10//20 9//20 12//20
